<?xml version="1.0" encoding="UTF-8"?><svg id="Layer_1" width="876.86" height="448.39" version="1.1" viewBox="0 0 876.86 448.39" xml:space="preserve" xmlns="http://www.w3.org/2000/svg" xmlns:rdf="http://www.w3.org/1999/02/22-rdf-syntax-ns#"><path id="path2" d="m688.3 216.56-102.79-53.357-5.562-17.171c-0.188-0.547-0.406-1.078-0.672-1.594-0.438-0.859-11.062-21.155-35.186-42.748-22.078-19.78-60.325-44.623-117.06-50.623-0.062-0.016-0.141-0.016-0.203-0.016l-66.403-5.672c-0.234-0.016-0.484-0.031-0.734-0.031l-166.78-2.688c-3.155-0.015-6.155 1.297-8.233 3.672-2.062 2.375-2.969 5.547-2.484 8.656l60.263 383.98c0.469 2.999 2.188 5.655 4.734 7.312 1.75 1.125 3.766 1.688 5.797 1.688 0.938 0 1.875-0.094 2.797-0.344 6.483-1.781 159.48-43.278 198.16-64.997 33.812-18.999 107.98-47.279 120.45-51.967h38.546c2.719 0 5.328-1.031 7.312-2.906l33.998-31.997c0.219-0.188 0.422-0.406 0.609-0.625l9.625-10.656c0.453-0.5 0.843-1.031 1.187-1.594l15.468-25.374c0.266-0.438 0.484-0.844 0.672-1.281l11.328-25.913c2.266-5.157 0.141-11.157-4.844-13.751z" fill="#ff5722"/><path id="path4" d="m534.06 160c0 5.891-4.781 10.656-10.672 10.656s-10.672-4.766-10.672-10.656 4.781-10.671 10.672-10.671 10.672 4.781 10.672 10.671z"/><path id="path6" d="m478.98 31.801c-4.031-5.859-9.953-9.438-17.141-10.375-1.031-0.141-2.109-0.203-3.188-0.203-20.78 0-46.998 26.796-52.045 32.155-2.671 2.844-3.577 6.905-2.374 10.593 1.203 3.703 4.312 6.453 8.124 7.188l57.982 11.156c0.672 0.125 1.344 0.188 2.016 0.188 4.828 0 9.188-3.297 10.359-8.156 1.111-4.595 6.126-28.188-3.733-42.546z" fill="#ff5722"/><polygon id="polygon8" transform="translate(182.07 -21.397)" points="479.25 309.37 395.5 309.37 460.72 327.96" enable-background="new" opacity=".2"/><path id="path10" d="m688.3 216.56-15.843-8.219s-13.374 15.062-4.172 22.984c9.188 7.922 21.483 6.703 21.483 6.703l3.375-7.719c2.267-5.155 0.142-11.155-4.843-13.749z"/><polygon id="polygon12" transform="translate(182.07 -21.397)" points="392.33 352.05 255.99 352.05 339.13 373.08" enable-background="new" opacity=".2"/><polygon id="polygon14" transform="translate(182.07 -21.397)" points="228.2 71.025 183.89 67.244 224.54 74.775" enable-background="new" opacity=".2"/><metadata id="metadata7491"><rdf:RDF/></metadata><path id="path952" d="m282.15 27.606-8.0687-2.7288c-111.92-37.863-156.9-8.5881-174.93 22.638-13.177 22.824-16.415 54.289-9.6348 93.522l4.194 24.263 9.1662-22.85c3.0488-7.5992 6.0464-13.964 8.9117-18.927 5.5285-9.5757 9.8956-12.763 12.146-12.565 9.0647 0.79854 20.937 33.521 28.792 55.178 4.8609 13.397 9.8858 27.254 15.094 37.786l5.7827 11.698z" fill="#f03" stroke-width=".54557"/><g id="g958" transform="matrix(-.27278 .47248 .47248 .27278 143.81 -90.809)" fill="#fff"><path id="path954" d="m460.8 200.12c-21.171 0-38.4-17.229-38.4-38.4s17.229-38.4 38.4-38.4 38.4 17.229 38.4 38.4-17.229 38.4-38.4 38.4z"/><path id="path956" d="m76.8 456.12c-35.294 0-64-28.706-64-64s28.706-64 64-64h358.4c35.294 0 64 28.706 64 64s-28.706 64-64 64z"/></g><path id="path960" d="m344.42 73.392-97.766 169.34c-11.571 20.042-37.194 26.908-57.236 15.336-14.446-8.3404-21.902-23.983-20.689-39.576-2.6249-3.5257-5.0891-7.2654-7.1666-11.47-5.3792-10.879-10.474-24.922-15.4-38.495-5.5478-15.298-15.537-42.837-22.453-49.695-1.2259 1.2111-3.2286 3.6085-5.8566 8.1603-2.7071 4.6889-5.5642 10.765-8.4951 18.066-0.24982 0.61928-0.54 1.2146-0.86598 1.7792 13.361 7.7141 17.938 24.796 10.224 38.157-7.7141 13.361-24.796 17.938-38.157 10.224-13.361-7.7141-17.938-24.796-10.224-38.157 3.1703-5.4911 7.9604-9.4026 13.395-11.683-0.44198-1.013-0.90258-2.0211-1.0919-3.1465-7.0696-40.884-3.5492-73.928 10.462-98.195 19.334-33.488 66.815-65.149 183.22-25.766 1.7583 0.59561 3.3382 1.4435 5.0144 2.153 13.109-10.963 32.087-13.305 47.747-4.2637 20.042 11.571 26.908 37.194 15.336 57.236zm-261.99 90.648c-3.8501 6.6685-1.5564 15.229 5.1121 19.079 6.6685 3.8501 15.229 1.5564 19.079-5.1121 3.8501-6.6685 1.5564-15.229-5.1121-19.079-6.6685-3.8501-15.229-1.5564-19.079 5.1121zm22.767-113.03c-12.314 21.328-15.275 51.384-8.8012 88.838 3.2596-8.1226 6.3722-14.668 9.3611-19.845 30.744-53.231 47.983 39.686 68.323 80.823l97.766-169.34c-87.904-29.738-143.63-20.362-166.65 19.519zm178.74-12.536-97.766 169.34c-7.7002 13.337-3.1171 30.455 10.224 38.157 13.337 7.7002 30.457 3.1128 38.157-10.224l97.766-169.34c7.7002-13.337 3.1128-30.457-10.224-38.157-13.337-7.7002-30.457-3.1128-38.157 10.224z" stroke-width=".54557"/></svg>
